<?xml version="1.0" standalone="no"?>
<!DOCTYPE svg PUBLIC "-//W3C//DTD SVG 20010904//EN"
 "http://www.w3.org/TR/2001/REC-SVG-20010904/DTD/svg10.dtd">
<svg version="1.0" xmlns="http://www.w3.org/2000/svg"
 width="700.000000pt" height="700.000000pt" viewBox="0 0 700.000000 700.000000"
 preserveAspectRatio="xMidYMid meet">
<metadata>
Created by potrace 1.14, written by Peter Selinger 2001-2017
</metadata>
<g transform="translate(0.000000,700.000000) scale(0.100000,-0.100000)"
fill="#000000" stroke="none">
<path d="M2639 6996 c-2 -2 -41 -7 -85 -10 -45 -4 -93 -9 -105 -11 -13 -2 -40
-6 -59 -9 -57 -9 -93 -16 -120 -22 -14 -3 -36 -8 -50 -10 -43 -8 -205 -53
-286 -80 -172 -57 -358 -143 -539 -248 -86 -50 -95 -53 -200 -65 -357 -40
-657 -198 -898 -474 -50 -57 -230 -317 -243 -350 -4 -12 31 -27 149 -66 l155
-52 -45 -67 c-50 -76 -111 -200 -138 -282 -39 -116 -101 -379 -91 -383 6 -2
66 -3 134 -2 79 1 122 -3 123 -9 3 -43 48 -159 83 -214 l23 -36 -35 -48 c-53
-74 -75 -141 -78 -239 -4 -94 9 -151 51 -228 65 -118 193 -210 317 -228 22 -2
47 -6 56 -7 21 -3 20 4 26 -171 3 -82 7 -163 11 -180 28 -152 41 -204 71 -294
125 -377 388 -704 736 -914 87 -52 201 -107 280 -134 29 -10 55 -19 57 -20 2
-2 -23 -31 -57 -66 -104 -104 -179 -252 -198 -387 -9 -61 -11 -1641 -2 -1646
10 -7 1418 -5 1453 1 160 30 267 71 397 152 l93 58 1640 5 c1544 5 1642 6
1676 23 l35 17 0 2881 c-1 2548 -3 2881 -16 2889 -43 28 -128 30 -1266 31
l-1179 1 223 111 c122 62 222 114 222 118 0 8 -861 399 -1025 465 -114 47
-322 115 -387 128 -13 2 -45 9 -73 15 -67 14 -97 19 -180 31 -38 6 -86 13
-105 16 -39 6 -545 15 -551 10z m476 -230 c130 -13 238 -29 310 -45 205 -48
339 -93 525 -174 122 -54 163 -72 325 -147 44 -20 99 -45 123 -55 23 -10 42
-21 42 -24 0 -3 -88 -50 -196 -103 l-195 -97 108 -83 c185 -142 297 -264 393
-427 46 -80 113 -231 102 -231 -4 0 -68 20 -142 45 -74 25 -135 45 -136 45 0
0 -1 -50 -2 -111 0 -61 -4 -143 -7 -183 -9 -90 -54 -270 -92 -361 l-29 -70
-45 4 c-24 1 -45 4 -46 5 -1 1 -3 88 -3 194 -2 233 -19 333 -79 455 -118 242
-340 393 -621 422 -36 4 -72 9 -81 10 -46 9 -211 26 -215 23 -3 -4 -32 -211
-30 -215 2 -3 51 -11 106 -18 25 -3 59 -7 75 -9 17 -2 55 -7 86 -10 191 -20
297 -69 404 -188 44 -49 96 -144 110 -201 l7 -28 -833 3 c-825 3 -835 4 -910
25 -272 79 -479 259 -583 505 l-28 66 -102 -35 c-55 -19 -102 -36 -104 -38 -6
-6 35 -108 64 -161 48 -86 76 -128 122 -182 24 -29 43 -55 40 -57 -2 -2 -107
-38 -233 -80 -234 -78 -289 -103 -361 -161 -78 -63 -164 -195 -182 -280 -7
-36 -10 -39 -47 -42 -22 -1 -56 -7 -75 -12 -49 -14 -47 -15 -74 38 -35 69 -49
127 -52 217 -1 44 -3 83 -3 88 -1 4 -44 7 -96 7 -52 0 -95 1 -95 3 0 21 59
168 94 233 55 103 109 173 220 286 47 48 82 89 78 91 -4 2 -85 30 -179 61 -95
32 -173 61 -173 65 0 14 69 98 142 172 125 127 365 257 542 293 82 17 115 22
141 22 l30 -1 40 -160 c22 -88 43 -168 47 -177 6 -15 16 -14 110 10 57 14 104
27 106 28 2 1 -13 66 -33 145 -20 79 -38 151 -40 159 -2 8 -6 26 -10 40 -5 23
1 29 82 76 79 46 152 82 283 141 124 56 356 125 530 157 123 22 144 25 255 32
55 3 101 7 102 8 6 5 322 -2 388 -8z m3726 -895 c3 -13 5 -5367 2 -5376 -2 -7
-483 -10 -1421 -9 -779 1 -1419 2 -1421 3 -2 0 73 50 168 111 l172 110 1052 0
c1016 1 1053 2 1093 20 23 11 55 35 73 55 66 75 61 -122 60 2394 0 1859 -2
2293 -13 2323 -20 55 -56 95 -112 123 l-50 26 -830 0 -829 0 -29 50 c-15 27
-47 78 -70 113 l-42 62 1098 0 c604 0 1099 -2 1099 -5z m-446 -668 l1 -223
-496 0 c-969 -1 -1333 0 -1337 4 -2 2 1 24 7 50 5 25 12 63 15 83 2 19 6 37 8
39 2 2 44 -10 93 -26 103 -35 274 -83 279 -78 3 2 -12 73 -50 249 -2 8 -10 40
-19 69 -9 30 -16 55 -16 56 0 1 341 1 757 0 l758 -1 0 -222z m-4512 -112 c53
-27 134 -60 179 -74 83 -26 105 -31 188 -43 25 -4 410 -8 855 -9 446 -2 812
-3 815 -4 3 0 5 -49 4 -108 l0 -108 -30 2 c-85 7 -987 7 -1032 0 -71 -10 -128
-38 -180 -89 -76 -73 -105 -150 -106 -283 l-1 -70 -111 -1 -112 0 -4 102 c-4
85 -9 111 -32 157 -34 71 -110 139 -184 168 -55 21 -70 21 -537 23 -264 1
-500 -2 -525 -5 -25 -4 -46 -6 -48 -4 -2 2 6 22 18 45 27 53 89 120 132 143
33 17 583 206 604 207 6 0 54 -22 107 -49z m2820 -340 c4 -1 7 -61 7 -133 0
-119 3 -138 24 -184 24 -52 67 -93 121 -115 23 -9 210 -13 775 -15 410 -1 750
-2 755 -3 7 -1 10 -117 10 -333 l0 -333 -1127 -3 -1126 -2 3 32 c2 18 4 69 4
114 l1 81 40 1 c22 1 68 11 102 23 211 71 337 288 296 508 -12 65 -59 159
-105 211 l-40 44 21 46 c12 25 24 50 28 55 5 8 161 12 211 6z m565 -109 l3
-112 -169 0 -168 0 0 108 c0 59 4 109 7 112 4 3 78 5 166 4 l158 0 3 -112z
m563 103 c4 -43 3 -199 -2 -206 -3 -6 -76 -8 -169 -7 l-164 3 1 95 c0 52 1
102 2 110 1 13 26 15 166 15 103 0 165 -4 166 -10z m556 1 c4 -4 8 -54 8 -112
l1 -104 -168 0 -168 0 0 108 c0 60 2 111 4 113 8 7 316 3 323 -5z m-5607 -442
l0 -226 -33 5 c-76 10 -149 69 -177 142 -46 121 22 257 149 296 65 19 61 31
61 -217z m1286 210 c60 -29 63 -52 60 -454 -1 -195 -6 -362 -10 -370 -4 -8
-19 -24 -34 -35 -26 -19 -45 -20 -507 -23 -431 -3 -483 -1 -511 13 -59 31 -59
33 -59 439 0 355 1 372 20 398 11 15 31 32 45 37 14 5 222 10 493 10 409 1
473 -1 503 -15z m1789 2 c70 -30 69 -26 69 -438 0 -355 -1 -369 -20 -395 -40
-53 -34 -53 -542 -53 -410 0 -477 2 -503 16 -57 29 -59 47 -59 440 0 341 1
358 20 390 12 18 33 37 48 43 16 5 211 10 490 10 378 1 469 -2 497 -13z m385
-9 c198 -87 159 -389 -54 -422 l-36 -6 0 225 0 226 28 -4 c15 -2 43 -10 62
-19z m-1664 -627 c1 -157 5 -205 19 -245 40 -115 141 -202 258 -223 23 -4 264
-7 535 -7 l493 1 -7 -30 c-3 -17 -19 -67 -34 -111 -123 -360 -385 -657 -730
-830 -80 -40 -234 -98 -290 -109 -14 -3 -61 -12 -105 -21 -86 -18 -305 -25
-415 -13 -575 60 -1075 485 -1240 1054 l-18 60 497 -1 c337 0 512 3 547 11
101 22 194 98 238 193 19 41 21 67 24 259 l4 213 111 -3 112 -3 1 -195z m2020
-585 c0 -60 4 -131 8 -157 9 -62 61 -129 123 -159 l48 -23 805 0 c443 0 807
-3 810 -7 4 -6 5 -639 1 -660 0 -4 -694 -7 -1542 -7 -847 0 -1539 1 -1537 3 2
1 41 29 88 60 47 32 87 60 90 64 3 3 27 24 55 46 160 128 331 345 433 550 42
84 97 237 117 325 l18 76 241 -1 241 0 1 -110z m445 106 c3 0 6 -50 6 -111 l0
-110 -113 0 -112 0 3 113 c1 61 3 112 4 113 2 1 206 -4 212 -5z m451 -6 c1 -5
2 -56 2 -112 l1 -103 -112 0 -113 0 0 109 c0 79 4 111 13 114 26 8 207 2 209
-8z m448 6 c3 0 6 -49 5 -108 l0 -108 -112 -3 -113 -3 1 114 0 113 107 -2 c59
-1 109 -2 112 -3z m450 0 c3 0 5 -49 5 -108 l0 -108 -113 -3 -112 -3 0 114 0
113 108 -2 c59 -1 109 -2 112 -3z m-3871 -1371 c103 -34 176 -90 237 -181 42
-61 44 -66 159 -452 l103 -342 -47 -91 -47 -91 100 -50 101 -51 50 97 50 96
185 92 c102 51 190 92 197 90 10 -2 82 -98 263 -354 l58 -81 -121 -77 c-67
-42 -196 -123 -286 -180 -249 -159 -357 -196 -551 -190 -156 4 -286 45 -412
129 -66 43 -157 131 -198 191 -61 89 -421 760 -439 819 -22 71 -23 244 -2 311
52 168 188 296 351 331 75 16 175 9 249 -16z m2077 -88 c1 -63 5 -132 8 -154
12 -72 78 -146 151 -167 28 -8 272 -12 840 -14 l800 -2 0 -328 c0 -181 -2
-332 -5 -336 -6 -8 -1830 -9 -1830 -1 0 3 7 28 16 55 21 67 24 187 7 255 -32
123 -125 240 -241 303 -105 57 -260 69 -372 29 -30 -11 -113 -50 -185 -86 -71
-36 -133 -66 -136 -66 -4 0 -14 21 -24 48 -71 189 -214 389 -367 514 -22 18
-48 40 -59 49 -17 15 36 16 689 15 l707 -1 1 -113z m451 4 l-2 -111 -110 0
-110 0 -1 111 -2 110 113 1 113 0 -1 -111z m449 2 c0 -60 -2 -109 -5 -109 -3
-1 -54 -3 -113 -4 l-108 -2 0 107 c0 59 2 109 5 112 3 2 53 4 113 4 l107 -1 1
-107z m450 7 c0 -55 -1 -105 -3 -111 -3 -7 -42 -10 -111 -10 l-107 1 -3 111
-3 111 113 -1 113 -1 1 -100z m434 99 c13 -3 16 -21 14 -107 -1 -56 -2 -105
-3 -108 0 -3 -50 -6 -111 -6 l-110 1 0 106 c0 59 2 109 6 112 6 7 181 8 204 2z
m-3331 -184 c117 -80 238 -217 311 -353 35 -65 84 -187 78 -192 -23 -19 -224
-113 -230 -107 -4 4 -48 144 -98 310 -50 167 -100 322 -111 343 -10 21 -17 39
-14 39 3 0 32 -18 64 -40z m1148 -499 c99 -27 172 -125 173 -233 0 -100 -38
-164 -138 -231 -89 -59 -113 -71 -122 -60 -32 33 -289 406 -285 413 7 12 191
100 238 115 44 13 75 12 134 -4z m-2157 -681 c126 -228 143 -254 244 -358 l70
-72 -226 0 -226 0 0 341 c0 278 2 337 12 317 7 -12 64 -115 126 -228z"/>
<path d="M4710 3967 l0 -113 112 1 113 0 0 113 0 112 -112 0 -113 0 0 -113z"/>
<path d="M5160 3967 l0 -113 108 2 c59 1 109 2 112 3 4 1 5 151 1 204 -1 15
-13 17 -111 17 l-110 0 0 -113z"/>
<path d="M2909 3093 c-23 -42 -97 -101 -152 -119 -44 -15 -94 -18 -339 -18
-227 0 -288 -3 -289 -13 0 -7 -2 -58 -2 -113 l-2 -101 303 2 c261 1 313 4 368
19 93 27 161 67 229 135 54 54 106 130 95 137 -3 2 -48 24 -101 50 l-96 47
-14 -26z"/>
<path d="M4710 2620 c0 -60 3 -110 8 -111 33 -4 212 -3 213 1 4 17 5 197 1
208 -3 8 -35 12 -113 12 l-109 0 0 -110z"/>
<path d="M5160 2618 l0 -113 106 2 c58 0 108 4 112 8 3 3 7 53 7 110 l1 105
-113 0 -113 0 0 -112z"/>
<path d="M4727 1382 c-15 -3 -17 -18 -17 -113 l0 -109 38 -1 c78 -2 176 2 181
7 10 10 7 205 -3 212 -10 6 -170 9 -199 4z"/>
<path d="M5160 1273 l0 -113 33 -1 c72 -2 181 2 186 7 3 3 6 52 6 110 0 97 -1
104 -20 105 -11 1 -62 2 -112 3 l-93 1 0 -112z"/>
</g>
</svg>
