<svg xmlns="http://www.w3.org/2000/svg" xmlns:xlink="http://www.w3.org/1999/xlink" width="500" zoomAndPan="magnify" viewBox="0 0 375 374.999991" height="500" preserveAspectRatio="xMidYMid meet" version="1.0"><defs><clipPath id="9c32161f5e"><path d="M 1 3.066406 L 374 3.066406 L 374 372 L 1 372 Z M 1 3.066406 " clip-rule="nonzero"/></clipPath><clipPath id="c052efc45a"><path d="M 140.035156 229.144531 L 111.695312 229.144531 L 111.695312 217.246094 L 140.035156 217.246094 C 145.972656 217.246094 151.316406 213.941406 153.96875 208.636719 L 164.613281 213.960938 C 159.925781 223.324219 150.507812 229.144531 140.035156 229.144531 Z M 373.46875 62.5625 L 373.46875 348.128906 C 373.46875 354.691406 368.132812 360.027344 361.570312 360.027344 L 191.621094 360.027344 L 185.945312 363.640625 C 177.421875 369.058594 167.582031 371.925781 157.484375 371.925781 L 87.902344 371.925781 L 87.902344 289.59375 C 87.902344 277.761719 93.558594 267.253906 102.289062 260.550781 C 66.378906 248.996094 40.308594 215.300781 40.308594 175.597656 L 40.308594 169.648438 C 27.183594 169.648438 16.511719 158.976562 16.511719 145.851562 C 16.511719 139.707031 18.914062 134.148438 22.757812 129.921875 C 19.851562 125.761719 17.867188 121.085938 17.015625 116.105469 L 2.933594 116.105469 L 6.65625 101.238281 C 8.824219 92.546875 12.726562 84.402344 18.082031 77.285156 L 1.285156 71.695312 L 9.601562 59.21875 C 22.769531 39.464844 44.585938 27.476562 68.226562 26.890625 C 92.226562 11.296875 119.992188 3.066406 148.652344 3.066406 L 152.398438 3.066406 C 173.621094 3.066406 194.175781 7.523438 213.5 16.304688 L 262.355469 38.507812 L 238.039062 50.664062 L 361.570312 50.664062 C 368.128906 50.664062 373.46875 56 373.46875 62.5625 Z M 18.183594 104.207031 L 28.410156 104.207031 L 28.410156 110.15625 C 28.410156 114.988281 29.960938 119.5625 32.734375 123.40625 C 35.125 122.597656 37.640625 122.054688 40.308594 122.054688 L 40.980469 122.054688 C 43.074219 111.785156 50.414062 103.195312 60.648438 99.78125 L 83.003906 92.328125 C 77.449219 86.359375 73.0625 79.191406 70.363281 71.085938 L 81.644531 67.320312 C 87.957031 86.238281 105.582031 98.949219 125.527344 98.949219 L 206.242188 98.949219 C 203.765625 87.691406 194.417969 78.84375 182.578125 77.363281 L 164.5 75.109375 L 165.976562 63.304688 L 184.054688 65.558594 C 203.847656 68.035156 218.78125 84.949219 218.78125 104.902344 L 218.78125 122.054688 C 220.472656 122.054688 222.113281 122.246094 223.703125 122.578125 C 228.242188 113.179688 230.679688 102.75 230.679688 92.308594 L 230.679688 84.054688 L 245.808594 89.101562 C 241.03125 75.566406 232.535156 63.953125 221.160156 55.421875 L 213.457031 49.644531 L 234.707031 39.019531 L 208.554688 27.132812 C 190.800781 19.058594 171.90625 14.96875 152.394531 14.96875 L 148.644531 14.96875 C 123.140625 14.96875 98.445312 22.140625 76.871094 35.597656 L 81.761719 55.171875 L 70.226562 58.058594 L 65.480469 39.042969 C 47.09375 40.429688 30.292969 49.953125 19.828125 65.328125 L 39.421875 71.859375 L 32.609375 78.667969 C 25.582031 85.691406 20.597656 94.496094 18.199219 104.125 Z M 242.167969 100.421875 C 241.835938 103.703125 241.234375 106.945312 240.515625 110.15625 L 337.769531 110.15625 L 337.769531 86.359375 L 257.433594 86.359375 C 258.542969 89.671875 259.503906 93.046875 260.195312 96.515625 L 262.207031 106.570312 L 252.597656 103.902344 Z M 224.539062 324.96875 C 228.382812 322.523438 230.679688 318.347656 230.679688 313.789062 C 230.6875 306.484375 224.742188 300.535156 217.429688 300.535156 C 215.324219 300.535156 213.273438 301.023438 211.441406 301.933594 L 201.050781 307.128906 L 217.152344 329.667969 Z M 181.28125 303.710938 C 177.386719 290.261719 168.433594 279.152344 156.796875 272.304688 C 157.933594 274.441406 158.9375 276.667969 159.65625 279.0625 L 168.910156 309.90625 Z M 242.585938 313.789062 C 242.585938 317.515625 241.734375 321.085938 240.234375 324.332031 L 337.773438 324.332031 L 337.773438 288.636719 L 254.484375 288.636719 C 247.921875 288.636719 242.585938 283.300781 242.585938 276.738281 L 242.585938 264.839844 L 167.171875 264.839844 C 178.671875 272.882812 187.535156 284.542969 192.035156 298.335938 L 206.121094 291.289062 C 209.597656 289.554688 213.488281 288.636719 217.367188 288.636719 C 231.300781 288.636719 242.585938 299.917969 242.585938 313.789062 Z M 313.976562 276.738281 L 313.976562 264.839844 L 302.078125 264.839844 L 302.078125 276.738281 Z M 290.179688 264.839844 L 278.28125 264.839844 L 278.28125 276.738281 L 290.179688 276.738281 Z M 266.382812 264.839844 L 254.484375 264.839844 L 254.484375 276.738281 L 266.382812 276.738281 Z M 337.773438 264.839844 L 325.875 264.839844 L 325.875 276.738281 L 337.773438 276.738281 Z M 337.773438 217.246094 L 254.484375 217.246094 C 247.921875 217.246094 242.585938 211.90625 242.585938 205.347656 L 242.585938 193.445312 L 216.992188 193.445312 C 211.804688 218.890625 195.722656 240.375 173.882812 252.941406 L 337.773438 252.941406 Z M 206.890625 175.597656 L 206.890625 139.902344 C 206.890625 136.625 204.222656 133.953125 200.941406 133.953125 L 153.34375 133.953125 C 150.0625 133.953125 147.394531 136.625 147.394531 139.902344 L 147.394531 175.597656 C 147.394531 178.878906 150.0625 181.546875 153.34375 181.546875 L 200.941406 181.546875 C 204.21875 181.546875 206.890625 178.878906 206.890625 175.597656 Z M 153.34375 122.054688 L 200.941406 122.054688 C 203.035156 122.054688 205.019531 122.484375 206.890625 123.148438 L 206.890625 110.851562 L 125.527344 110.851562 C 113.894531 110.851562 102.914062 107.378906 93.667969 101.316406 L 64.414062 111.066406 C 58.78125 112.941406 54.609375 117.425781 52.980469 122.90625 C 54.621094 122.40625 56.339844 122.054688 58.15625 122.054688 L 105.75 122.054688 C 115.589844 122.054688 123.597656 130.0625 123.597656 139.902344 L 123.597656 145.851562 L 135.496094 145.851562 L 135.496094 139.902344 C 135.496094 130.0625 143.5 122.054688 153.34375 122.054688 Z M 58.15625 181.546875 L 105.75 181.546875 C 109.035156 181.546875 111.699219 178.878906 111.699219 175.597656 L 111.699219 139.902344 C 111.699219 136.625 109.035156 133.953125 105.75 133.953125 L 58.15625 133.953125 C 54.871094 133.953125 52.207031 136.625 52.207031 139.902344 L 52.207031 175.597656 C 52.207031 178.878906 54.871094 181.546875 58.15625 181.546875 Z M 218.789062 133.953125 L 218.789062 157.75 C 225.351562 157.75 230.6875 152.414062 230.6875 145.851562 C 230.6875 139.289062 225.34375 133.953125 218.789062 133.953125 Z M 313.976562 205.347656 L 313.976562 193.445312 L 302.078125 193.445312 L 302.078125 205.347656 Z M 290.179688 193.445312 L 278.28125 193.445312 L 278.28125 205.347656 L 290.179688 205.347656 Z M 266.382812 193.445312 L 254.484375 193.445312 L 254.484375 205.347656 L 266.382812 205.347656 Z M 337.773438 193.445312 L 325.875 193.445312 L 325.875 205.347656 L 337.773438 205.347656 Z M 337.773438 145.851562 L 260.433594 145.851562 C 253.871094 145.851562 248.535156 140.515625 248.535156 133.953125 L 248.535156 122.054688 L 236.957031 122.054688 C 236.171875 124.070312 235.273438 126.035156 234.328125 127.980469 C 239.34375 132.347656 242.578125 138.703125 242.578125 145.851562 C 242.578125 158.976562 231.90625 169.648438 218.78125 169.648438 L 218.78125 175.597656 C 218.78125 177.609375 218.609375 179.574219 218.476562 181.546875 L 337.769531 181.546875 L 337.769531 145.851562 Z M 308.027344 133.953125 L 308.027344 122.054688 L 290.179688 122.054688 L 290.179688 133.953125 Z M 278.28125 122.054688 L 260.433594 122.054688 L 260.433594 133.953125 L 278.28125 133.953125 Z M 337.773438 122.054688 L 319.925781 122.054688 L 319.925781 133.953125 L 337.773438 133.953125 Z M 40.308594 157.75 L 40.308594 133.953125 C 33.746094 133.953125 28.410156 139.289062 28.410156 145.851562 C 28.410156 152.414062 33.746094 157.75 40.308594 157.75 Z M 129.546875 252.941406 C 166.207031 252.941406 196.921875 227.273438 204.847656 192.988281 C 203.582031 193.269531 202.285156 193.445312 200.941406 193.445312 L 153.34375 193.445312 C 143.503906 193.445312 135.496094 185.4375 135.496094 175.597656 L 135.496094 157.75 L 123.597656 157.75 L 123.597656 175.597656 C 123.597656 185.4375 115.589844 193.445312 105.75 193.445312 L 58.15625 193.445312 C 56.8125 193.445312 55.507812 193.269531 54.246094 192.988281 C 62.164062 227.273438 92.886719 252.941406 129.546875 252.941406 Z M 124.078125 360.027344 C 118.816406 355.75 114.304688 350.460938 110.9375 344.296875 L 99.792969 323.867188 L 99.792969 360.027344 Z M 207.109375 336.066406 L 190.285156 312.511719 L 169.675781 322.816406 L 164.613281 332.941406 L 153.96875 327.617188 L 158.867188 317.832031 L 148.257812 282.472656 C 145.09375 271.925781 135.5625 264.839844 124.550781 264.839844 C 110.902344 264.839844 99.800781 275.945312 99.800781 289.59375 L 99.800781 292.707031 C 99.800781 296.828125 100.847656 300.933594 102.824219 304.5625 L 121.390625 338.597656 C 128.59375 351.820312 142.433594 360.027344 157.484375 360.027344 C 165.316406 360.027344 172.949219 357.804688 179.558594 353.597656 Z M 361.570312 62.5625 L 244.945312 62.5625 C 247.765625 66.308594 250.253906 70.289062 252.40625 74.460938 L 337.773438 74.460938 C 344.335938 74.460938 349.671875 79.796875 349.671875 86.359375 L 349.671875 324.332031 C 349.671875 330.894531 344.335938 336.230469 337.773438 336.230469 L 229.007812 336.230469 L 210.316406 348.128906 L 361.570312 348.128906 Z M 260.433594 300.535156 L 248.535156 300.535156 L 248.535156 312.433594 L 260.433594 312.433594 Z M 284.230469 300.535156 L 272.332031 300.535156 L 272.332031 312.433594 L 284.230469 312.433594 Z M 248.535156 241.042969 L 260.433594 241.042969 L 260.433594 229.144531 L 248.535156 229.144531 Z M 284.230469 229.144531 L 272.332031 229.144531 L 272.332031 241.042969 L 284.230469 241.042969 Z M 248.535156 169.648438 L 260.433594 169.648438 L 260.433594 157.75 L 248.535156 157.75 Z M 284.230469 157.75 L 272.332031 157.75 L 272.332031 169.648438 L 284.230469 169.648438 Z M 284.230469 157.75 " clip-rule="nonzero"/></clipPath></defs><g clip-path="url(#9c32161f5e)"><g clip-path="url(#c052efc45a)"><path fill="#0bb1d3" d="M 1.285156 3.066406 L 1.285156 371.925781 L 373.46875 371.925781 L 373.46875 3.066406 Z M 1.285156 3.066406 " fill-opacity="1" fill-rule="nonzero"/></g></g></svg>